<svg xmlns="http://www.w3.org/2000/svg" viewBox="0 0 24 24">
  <symbol id="hamburger-icon--even" viewBox="0 0 24 18">
    <rect x="2" y="2" width="20" height="2" rx="1"/>
    <rect x="2" y="8" width="20" height="2" rx="1"/>
    <rect x="2" y="14" width="20" height="2" rx="1"/>
  </symbol>
  <symbol id="hamburger-icon--odd" viewBox="0 0 24 18">
    <use href="#hamburger-icon--even"/>
  </symbol>
  <symbol id="hotdog-icon--even" viewBox="0 0 24 14">
    <rect x="2" y="2" width="20" height="10" rx="5"/>
  </symbol>
  <symbol id="hotdog-icon--odd" viewBox="0 0 24 14">
    <use href="#hotdog-icon--even"/>
  </symbol>
  <symbol id="plus-icon--even" viewBox="0 0 20 20">
    <rect x="9" y="3" width="2" height="14" rx="1"/>
    <rect x="3" y="9" width="14" height="2" rx="1"/>
  </symbol>
  <symbol id="plus-icon--odd" viewBox="0 0 20 20">
    <use href="#plus-icon--even"/>
  </symbol>
  <symbol id="dots-horizontal-icon--even" viewBox="0 0 25 7">
    <circle cx="4" cy="3.5" r="1.5"/>
    <circle cx="12.5" cy="3.5" r="1.5"/>
    <circle cx="21" cy="3.5" r="1.5"/>
  </symbol>
  <symbol id="dots-horizontal-icon--odd" viewBox="0 0 25 7">
    <use href="#dots-horizontal-icon--even"/>
  </symbol>
  <symbol id="dots-vertical-icon--even" viewBox="0 0 7 25">
    <circle cx="3.5" cy="4" r="1.5"/>
    <circle cx="3.5" cy="12.5" r="1.5"/>
    <circle cx="3.5" cy="21" r="1.5"/>
  </symbol>
  <symbol id="dots-vertical-icon--odd" viewBox="0 0 7 25">
    <use href="#dots-vertical-icon--even"/>
  </symbol>
  <symbol id="squares-horizontal-icon--even" viewBox="0 0 25 7">
    <rect x="2" y="1" width="5" height="5" rx="1"/>
    <rect x="10" y="1" width="5" height="5" rx="1"/>
    <rect x="18" y="1" width="5" height="5" rx="1"/>
  </symbol>
  <symbol id="squares-horizontal-icon--odd" viewBox="0 0 25 7">
    <use href="#squares-horizontal-icon--even"/>
  </symbol>
  <symbol id="squares-vertical-icon--even" viewBox="0 0 7 25">
    <rect x="1" y="2" width="5" height="5" rx="1"/>
    <rect x="1" y="10" width="5" height="5" rx="1"/>
    <rect x="1" y="18" width="5" height="5" rx="1"/>
  </symbol>
  <symbol id="squares-vertical-icon--odd" viewBox="0 0 7 25">
    <use href="#squares-vertical-icon--even"/>
  </symbol>
  <symbol id="search-icon" viewBox="0 0 20 20">
    <circle cx="9" cy="9" r="5" fill="none" stroke="currentColor" stroke-width="2"/>
    <line x1="12.5" y1="12.5" x2="18" y2="18" stroke="currentColor" stroke-width="2" stroke-linecap="round"/>
  </symbol>
  <symbol id="search-icon--small" viewBox="0 0 16 16">
    <circle cx="7" cy="7" r="4" fill="none" stroke="currentColor" stroke-width="2"/>
    <line x1="10.5" y1="10.5" x2="15" y2="15" stroke="currentColor" stroke-width="2" stroke-linecap="round"/>
  </symbol>
  <symbol id="close-icon" viewBox="0 0 20 20">
    <line x1="4" y1="4" x2="16" y2="16" stroke="currentColor" stroke-width="2" stroke-linecap="round"/>
    <line x1="16" y1="4" x2="4" y2="16" stroke="currentColor" stroke-width="2" stroke-linecap="round"/>
  </symbol>
</svg>
